<svg width="64" height="64" viewBox="0 0 64 64" fill="none" xmlns="http://www.w3.org/2000/svg">
<rect width="64" height="64" rx="16" fill="white"/>
<path d="M19.4444 50C16.5722 50 14.1134 49.0003 12.0681 47.0008C10.0227 45.0014 9 42.5978 9 39.79V14H50.7778C52.2139 14 53.4433 14.765 54.466 15.7647C55.4887 16.7644 56 17.9662 56 19.3701V27.0276C56 28.4315 55.4887 29.6333 54.466 30.633C53.4433 31.6327 52.2139 31.8773 50.7778 31.8773L45.5555 31.8773L45.5556 39.79C45.5556 42.5978 44.5329 45.0014 42.4875 47.0008C40.4421 49.0003 37.9833 50 35.1111 50H19.4444ZM19.4444 44.895H35.1111C36.5472 44.895 37.7766 44.3952 38.7993 43.3954C39.822 42.3957 40.3333 41.1939 40.3333 39.79V19.3701H14.2222V39.79C14.2222 41.1939 14.7336 42.3957 15.7563 43.3954C16.7789 44.3952 18.0083 44.895 19.4444 44.895ZM45.5556 27.0276H50.7778V19.3701H45.5556V27.0276ZM19.4444 44.895H14.2222H40.3333H19.4444Z" fill="black"/>
</svg>
